<?xml version="1.0" encoding="UTF-8"?>
<svg width="216px" height="48px" viewBox="0 0 216 48" version="1.1" xmlns="http://www.w3.org/2000/svg" xmlns:xlink="http://www.w3.org/1999/xlink">
    <!-- Generator: Sketch 50.2 (55047) - http://www.bohemiancoding.com/sketch -->
    <title>hbo-logo</title>
    <desc>Created with Sketch.</desc>
    <defs>
        <polygon id="path-1" points="0 0.0232727273 215.982909 0.0232727273 215.982909 47.9781818 0 47.9781818"></polygon>
    </defs>
    <g id="Symbols" stroke="none" stroke-width="1" fill="none" fill-rule="evenodd">
        <g id="ctv-header-hbo-go" transform="translate(-72.000000, -48.000000)">
            <g id="hbo-go-logo" transform="translate(72.000000, 48.000000)">
                <g id="main" stroke-width="1">
                    <mask id="mask-2" fill="white">
                        <use xlink:href="#path-1"></use>
                    </mask>
                    <g id="clip"></g>
                    <path d="M191.996,35.8552727 C185.455636,35.8552727 180.150545,30.5538182 180.150545,24.0112727 C180.150545,17.4672727 185.455636,12.1654545 191.996,12.1654545 C198.538909,12.1654545 203.840727,17.4672727 203.840727,24.0112727 C203.840727,30.5538182 198.538909,35.8552727 191.996,35.8552727 Z M191.993818,0.0232727273 C179.700364,0.0232727273 169.572727,9.27272727 168.176727,21.1930909 L142.968364,21.1930909 L142.968364,30.4941818 L156.510909,30.4941818 C155.416727,35.0109091 151.587636,37.8141818 146.450909,37.8141818 C138.458909,37.8141818 133.188,32.132 133.188,23.6501818 C133.188,16.3345455 138.521818,10.86 145.632727,10.86 C149.944364,10.86 153.573818,12.9829091 155.621818,16.816 L168.683273,16.816 C166.087273,7.44254545 156.374545,0.604363636 145.981091,0.604363636 C132.164364,0.604363636 121.561455,10.86 121.561455,24.1301818 C121.561455,37.4690909 132.164364,48 145.705091,48 C156.970909,48 166.028,41.0676364 169.043273,30.9996364 C172.036364,40.8381818 181.177455,48 191.993818,48 C205.243273,48 215.982909,37.2603636 215.982909,24.0112727 C215.982909,10.7614545 205.243273,0.0232727273 191.993818,0.0232727273 Z" id="go" fill="#B2B6B6" mask="url(#mask-2)"></path>
                    <path d="M92.3061818,33.3534545 C97.3625455,33.3534545 101.636,29.1854545 101.636,23.9730909 C101.636,18.7596364 97.3625455,14.6418182 92.3061818,14.6418182 C87.0938182,14.6418182 82.9258182,18.7596364 82.9258182,23.9730909 C82.9258182,29.1854545 87.0938182,33.3534545 92.3061818,33.3534545 Z M80.424,23.9730909 C80.424,17.4054545 85.7392727,12.0876364 92.3061818,12.0876364 C98.8730909,12.0876364 104.190545,17.4054545 104.190545,23.9730909 C104.190545,30.5938182 98.8730909,35.9072727 92.3061818,35.9072727 C85.7392727,35.9072727 80.424,30.5938182 80.424,23.9730909 Z M63.7454545,23.9730909 C65.2570909,23.8687273 67.7050909,22.1487273 68.6436364,21.1058182 C68.2803636,22.3563636 68.2803636,26.3189091 68.6436364,27.5705455 C67.6007273,26.0578182 65.2570909,24.2345455 63.7454545,23.9730909 Z M55.1970909,11.4101818 C57.0741818,11.4101818 58.5858182,13.2370909 58.5858182,15.3192727 C58.5858182,17.4054545 57.0741818,19.2305455 55.1970909,19.2305455 L48.7345455,19.2305455 L48.7345455,11.4101818 L55.1970909,11.4101818 Z M55.1970909,28.9778182 C57.0741818,28.9778182 58.5858182,30.8025455 58.5858182,32.8872727 C58.5858182,35.0727273 57.0741818,36.8970909 55.1970909,36.8970909 L48.7345455,36.8970909 L48.7345455,28.9778182 L55.1970909,28.9778182 Z M92.3061818,48 C105.337818,48 115.969818,37.1618182 115.969818,23.9730909 C115.969818,10.5756364 105.337818,0.206545455 92.3061818,0.206545455 C79.1196364,0.206545455 72.4483636,9.79781818 70.8338182,13.7036364 C70.8338182,7.92036364 65.0483636,0.986909091 58.3247273,0.986909091 L36.5898182,0.986909091 L36.5898182,47.7912727 L56.8116364,47.7912727 C65.0483636,47.7912727 70.8338182,40.756 70.8338182,34.6072727 C72.656,38.4098182 79.1196364,48 92.3061818,48 Z M33.9825455,47.7912727 L21.2672727,47.7912727 L21.2672727,29.6541818 L13.0316364,29.6541818 L13.0316364,47.7912727 L0,47.7912727 L0,0.986909091 L13.0316364,0.986909091 L13.0316364,18.4469091 L21.2672727,18.4469091 L21.2672727,0.986909091 L33.9825455,0.986909091 L33.9825455,47.7912727 Z" id="hbo" fill="#20211F" mask="url(#mask-2)"></path>
                </g>
                <path d="M191.956,33.3672727 C197.012364,33.3672727 201.285818,29.1992727 201.285818,23.9869091 C201.285818,18.7734545 197.012364,14.6556364 191.956,14.6556364 C186.743636,14.6556364 182.575636,18.7734545 182.575636,23.9869091 C182.575636,29.1992727 186.743636,33.3672727 191.956,33.3672727" id="circle" fill="#3AA6D2"></path>
                <path d="M212.655636,3.76254545 C212.916,3.76254545 213.062545,3.62690909 213.062545,3.43454545 C213.062545,3.21927273 212.916,3.10654545 212.655636,3.10654545 L212.169091,3.10654545 L212.169091,3.76254545 L212.655636,3.76254545 Z M211.784364,2.76690909 L212.689455,2.76690909 C213.130909,2.76690909 213.458909,2.98181818 213.458909,3.40036364 C213.458909,3.72836364 213.266545,3.932 212.994909,4.01163636 L213.526545,4.76945455 L213.062545,4.76945455 L212.588,4.07927273 L212.169091,4.07927273 L212.169091,4.76945455 L211.784364,4.76945455 L211.784364,2.76690909 Z M214.296,3.808 L214.296,3.79672727 C214.296,2.83490909 213.549091,2.04290909 212.553818,2.04290909 C211.569455,2.04290909 210.811636,2.84618182 210.811636,3.808 L210.811636,3.81927273 C210.811636,4.78072727 211.558182,5.57236364 212.553818,5.57236364 C213.537818,5.57236364 214.296,4.76945455 214.296,3.808 Z M210.585455,3.81927273 L210.585455,3.808 C210.585455,2.73309091 211.456727,1.828 212.553818,1.828 C213.662545,1.828 214.522545,2.72181818 214.522545,3.79672727 L214.522545,3.808 C214.522545,4.88254545 213.651273,5.78727273 212.553818,5.78727273 C211.445091,5.78727273 210.585455,4.89381818 210.585455,3.81927273 Z" id="Fill-6" fill="#B2B6B6"></path>
            </g>
        </g>
    </g>
</svg>