<?xml version="1.0" encoding="utf-8"?>
<!-- Generator: Adobe Illustrator 19.2.1, SVG Export Plug-In . SVG Version: 6.00 Build 0)  -->
<svg version="1.1" id="Layer_1" xmlns="http://www.w3.org/2000/svg" xmlns:xlink="http://www.w3.org/1999/xlink" x="0px" y="0px"
	 viewBox="0 0 580.6 129" style="enable-background:new 0 0 580.6 129;" xml:space="preserve">
<style type="text/css">
	.st0{fill:#2EB0E5;}
	.st1{fill:#FFFFFF;}
	.st2{fill:#C6CDD2;}
</style>
<title>HBOGO_logo</title>
<g>
	<circle class="st0" cx="516.1" cy="64.5" r="25"/>
	<path class="st1" d="M91.4,128.4H57.2V79.7H35v48.8H0V2.6h35v46.9h22.2V2.6h34.2V128.4z M248.1,129c35,0,63.6-29.1,63.6-64.6
		c0.3-35-27.8-63.6-62.8-63.9c-0.3,0-0.5,0-0.8,0c-35.4,0-53.4,25.8-57.7,36.3c0-15.5-15.6-34.2-33.6-34.2H98.4v125.8h54.4
		c22.1,0,37.7-18.9,37.7-35.4C195.3,103.2,212.7,129,248.1,129 M148.4,77.8c5,0,9.1,4.9,9.1,10.5c0,5.9-4.1,10.8-9.1,10.8H131V77.8
		H148.4L148.4,77.8z M148.4,30.6c5,0,9.1,4.9,9.1,10.5s-4.1,10.5-9.1,10.5H131v-21L148.4,30.6L148.4,30.6z M171.4,64.4
		c4.1-0.3,10.6-4.9,13.2-7.7c-1,3.4-1,14,0,17.4C181.8,70,175.5,65,171.4,64.4 M216.2,64.4c0.1-17.6,14.4-31.9,32.1-31.8
		c17.6,0.1,31.9,14.4,31.8,32.1c-0.1,17.6-14.4,31.8-32,31.8s-31.9-14.3-31.9-31.9C216.2,64.5,216.2,64.4,216.2,64.4 M248.1,89.6
		c13.9,0,25.1-11.3,25.1-25.2S262,39.3,248.1,39.3S223,50.6,223,64.4S234.3,89.6,248.1,89.6"/>
	<path class="st2" d="M519.3,0.1c-33.9-1.7-63.2,23.2-67.2,56.8h-67.8v25h36.4c-2.9,12.1-13.2,19.7-27,19.7
		c-21.5,0-35.7-15.3-35.7-38.1c0-19.7,14.3-34.4,33.5-34.4c11.3-0.2,21.7,6,26.9,16h35.1c-7-25.2-33.1-43.6-61-43.6
		c-37.1,0-65.6,27.6-65.6,63.3c0,35.9,28.5,64.2,64.9,64.2c30.3,0,54.6-18.6,62.7-45.7c10.4,34.1,46.4,53.3,80.5,42.9
		s53.3-46.4,42.9-80.5C570,19.7,546.5,1.4,519.3,0.1z M518.3,96.3c-17.6,1.2-32.7-12.1-33.9-29.7s12.1-32.7,29.6-33.9
		c17.6-1.2,32.7,12.1,33.9,29.7c0.1,1.4,0.1,2.8,0,4.2C546.9,82.5,534.2,95.2,518.3,96.3z"/>
	<path class="st2" d="M566.1,10.2L566.1,10.2c0-2.9,2.4-5.3,5.3-5.3c2.9,0,5.3,2.4,5.3,5.3l0,0c0,2.9-2.4,5.3-5.3,5.3
		S566.1,13.1,566.1,10.2z M576.5,10.2L576.5,10.2c0-2.8-2.3-5-5-5c-2.8,0-5,2.3-5,5l0,0c0,2.8,2.3,5,5,5S576.5,13,576.5,10.2
		L576.5,10.2z M569.5,7.4h2.2c0.6,0,1.1,0.1,1.5,0.5c0.3,0.3,0.4,0.6,0.4,1l0,0c0,0.9-0.7,1.6-1.6,1.6l0,0l1.8,2.3h-0.3l-1.7-2.3
		h-1.9v2.3h-0.3L569.5,7.4L569.5,7.4z M571.6,10.2c1.1,0,1.7-0.5,1.7-1.3l0,0c0-0.8-0.6-1.2-1.7-1.2h-1.9v2.5H571.6L571.6,10.2z"/>
</g>
</svg>
